<svg width="256" height="256" viewBox="0 0 256 256" fill="none" xmlns="http://www.w3.org/2000/svg">
<rect width="256" height="256" rx="60" fill="#282a36"/>
<path d="M128 40C88.2355 40 56 72.2355 56 112V136H48C39.1634 136 32 143.163 32 152V216C32 224.837 39.1634 232 48 232H208C216.837 232 224 224.837 224 216V152C224 143.163 216.837 136 208 136H200V112C200 72.2355 167.765 40 128 40ZM128 64C154.51 64 176 85.4903 176 112V136H80V112C80 85.4903 101.49 64 128 64Z" fill="#bd93f9"/>
<path d="M128 160L148 190H108L128 160Z" fill="#50fa7b"/>
<path d="M100 136L80 166H120L100 136Z" fill="#ff5555" opacity="0.8"/>
<path d="M156 136L136 166H176L156 136Z" fill="#ff5555" opacity="0.8"/>
</svg>
